<?xml version="1.0" encoding="UTF-8"?>
<svg id="Calque_2" data-name="Calque 2" xmlns="http://www.w3.org/2000/svg" viewBox="0 0 1024 1024">
  <defs>
    <style>
      .cls-1 {
        fill: none;
        stroke-width: 0px;
      }

      .cls-2 {
        fill: #fff;
        stroke: #fff;
        stroke-miterlimit: 10;
      }
    </style>
  </defs>
  <g id="Route_5" data-name="Route 5">
    <path class="cls-2" d="M261.93,684.55l21.02,1.04s1.45,13.23,6.16,19.21,5.07,22.28,5.07,22.28c0,0-3.26,4.35,5.44,5.8s4.53-.18,13.04,5.25l8.51,5.44s3.99,6.88-.72,12.14-19.38,5.07-20.65,5.62,0,10.87,0,10.87c0,0-6.7,5.07-9.96,6.7s-7.43-9.24-7.43-9.24l-1.81-9.96s-1.63-3.99-19.93-9.96,13.77-21.02,13.77-21.02c0,0,9.96-5.44,6.52-13.95s-10.15-20.29-10.15-20.29c0,0,4.7-2.64-8.88-9.92Z"/>
    <rect class="cls-1" width="1024" height="1024"/>
  </g>
</svg>