<?xml version="1.0" encoding="UTF-8"?>
<svg id="Calque_2" data-name="Calque 2" xmlns="http://www.w3.org/2000/svg" viewBox="0 0 1024 1024">
  <defs>
    <style>
      .cls-1 {
        fill: none;
        stroke-width: 0px;
      }

      .cls-2 {
        fill: #fff;
        stroke: #fff;
        stroke-miterlimit: 10;
      }
    </style>
  </defs>
  <g id="Route_10" data-name="Route 10">
    <path class="cls-2" d="M466.84,439.93l-.4-8.31s16.37.3,19.39-5.14,30.19-47.09,30.19-47.09c0,0,25.06-15.4,44.68-24.75s21.43-13.28,21.43-13.28c0,0,5.43-9.06-2.72-16.6s-36.23-25.89-47.09-21.85-26.87-5.02-26.87-5.02c0,0-9.36-1.51-13.58,1.51s-7.25,7.55-7.25,7.55c0,0-9.36,1.81-14.19,3.32s-6.52,23.85-6.52,23.85l-9.22-5.21s-.26-16.53,5.77-21.36,10.87-6.04,10.87-6.04c0,0,5.66-.45,10.98-4s5.02-7.77,19.21-6.57,17.77,4.83,17.77,4.83c0,0,5.47,1.81,14.53-.6s38.79,11.17,38.79,11.17c0,0,5.21-.3,11.28,5.43s11.21,16.3,11.21,16.3c0,0,6.34,7.55-3.02,18.72s-37.74,20.83-39.85,23.55-15.45,2.72-26.29,14.79-31.07,47.4-31.07,47.4c0,0,1.56,8.77-28.05,7.41Z"/>
    <rect class="cls-1" width="1024" height="1024"/>
  </g>
</svg>