<?xml version="1.0" encoding="UTF-8"?>
<svg id="Calque_2" data-name="Calque 2" xmlns="http://www.w3.org/2000/svg" viewBox="0 0 1024.5 1024">
  <defs>
    <style>
      .cls-1 {
        fill: none;
        stroke-width: 0px;
      }

      .cls-2 {
        fill: #fff;
        stroke: #fff;
        stroke-miterlimit: 10;
      }
    </style>
  </defs>
  <g id="Route_12" data-name="Route 12">
    <path class="cls-2" d="M710.8,407.53l-11.51-7.3s16.28.6,37.11-10.26,35.92-18.1,35.92-18.1l23.55-10.28s31.7-.6,32.3,0,16,22.84,16,22.84c0,0,40.45,2.82,43.77,7.96s23.55-11.77,23.55-11.77c0,0,2.42-11.17-6.04-11.77,0,0-19.92.97-22.64-7.51s-2.42-13.92-9.36-14.22-16.3-8.15-4.83-6.94,16.3,2.42,19.02,7.85,0,11.77,11.77,12.68,20.53,4.32,21.43,4.73,11.77.71,11.77-6.84,7.85-13.58,7.85-3.62.6,12.08-4.83,15.4-12.08,3.44-12.08,3.44c0,0-.6,11.05-3.62,12.87s-21.43,13.89-25.06,15.4-1.21,5.49-1.21,5.49l16,10.51s12.08-4.53,16.3-7.25,10.57,3.32,10.57,3.32c0,0,0,3.62,7.85,8.15s-1.81,8.75-8.45,2.42-9.36-5.43-9.36-5.43c0,0-10.26,3.02-9.66,7.25s3.62,11.47,3.62,11.47c0,0,1.21,8.84,1.51,11.97s17.21,8.26,17.21,8.26c0,0,19.02-7.76,22.04-8.26s19.32-.5,21.43-2.31,16.91-12.98,13.89-15.7-7.25-9.66-9.96-13.58-15.7-5.74-15.7-5.74c0,0-16-3.92-8.15-4.53s10.57-2.11,18.42-.6,12.68,6.04,12.68,6.04c0,0,.21,9.36,3.12,10.87s8.35,2.72,8.35,2.72c0,0-.3,8.77-3.32,12.84s-8.75,11.91-8.75,11.91c0,0-11.47,7.55-16.6,6.34s-10.57-1.51-10.57-1.51l-23.25,9.36.91,19.02s5.74,7.85,12.68,5.43,9.66-8.15,13.28-4.83,5.13,9.96,13.89,6.94,16.91-6.04,18.11-10.57,4.23-15.7,11.17-16,11.08.3,11.08.3v7.55s-9.26-5.13-11.38.91-4.83,11.47-7.85,13.89-19.02,7.85-18.72,11.47,5.43,21.74,3.02,26.87-9.66,8.02-9.06-5.2-.3-23.48-.3-23.48c0,0-8.45-6.04-13.28-4.23s-6.64,5.43-6.64,5.43l.91,12.45s-35.62,24.08-40.75,24.98-7.25,4.23-7.25,4.23c0,0,1.51,8.45-1.81,10.87s-24.75,18.73-24.75,18.73l-15.7,4.52s-37.43-6.94-38.64-11.17-.6-8.64-11.17-9.15-25.96-4.43-34.11-8.06-19.02-13.89-25.96-7.85-14.49,5.13-16,10.26-6.94,13.58-9.06,15.7-12.38-8.75-12.38-8.75c0,0,15.09-8.15,10.26-11.47s-26.53-17.21-34.1-17.51-24.17-4.83-39.57-13.28-28.68-9.36-28.68-9.36l9.55-10.25,41.47,21.72s20.83,1.21,37.43,9.96,22.34,9.96,22.34,9.96c0,0,8.15-.4,12.68-3.22s15.4-3.72,15.4-3.72c0,0,29.58,15.4,38.64,15.7s18.97,1.21,18.97,1.21c0,0,7.9-13.28,15.44-16.6s5.13-9.79,22.94-7.61,43.17,8.82,48.91,7.61,36.83-16.6,36.23-20.83,1.81-9.96-6.94-14.19-10.57-6.04-12.08-12.38,1.21-18.11-3.62-19.32-14.49-7.85-20.83-2.42-20.83,14.79-20.83,14.79l-6.34-7.55,28.98-17.62s6.04-15.59-3.32-21.93-23.85-17.81-25.06-27.17-33.51-6.04-33.51-6.04c0,0-22.34,21.13-30.49,22.04s-32-4.83-34.11-6.04-13.58,3.02-13.58,3.02c0,0-5.43-3.62,2.42-6.94s17.21-1.81,17.21-1.81c0,0,20.23,6.64,25.36,3.62s23.25-14.49,21.43-17.21-5.23-8.45-8.2-14.79-18.67-7.85-18.67-7.85c0,0-2.42-3.02-31.09,11.17s-54.94,26.57-54.94,26.57c0,0-10.25,2.08-12.02.96Z"/>
    <rect class="cls-1" width="1024" height="1024"/>
  </g>
</svg>