<?xml version="1.0" encoding="UTF-8"?>
<svg id="Calque_2" data-name="Calque 2" xmlns="http://www.w3.org/2000/svg" viewBox="0 0 1024 1024">
  <defs>
    <style>
      .cls-1 {
        fill: none;
        stroke-width: 0px;
      }

      .cls-2 {
        fill: #fff;
        stroke: #fff;
        stroke-miterlimit: 10;
      }


    </style>
  </defs>
  <g id="Route_1" data-name="Route 1">
    <path class="cls-2" d="M112.4,549.02s4.92-4.25,10.7.45l.4,22.75s1.64,4.08,8.15,4.75,14.04.85,14.04.85c0,0,1.64,2.72,4.58,2.21s-1.98,1.87-1.92,2.15.17,1.47,2.09,1.36,8.04-1.98,8.04-1.98c0,0,3.34-.74,3.06,1.25s-.91,3.91,1.36,5.04-2.38,2.72,17.49,2.04,18.45-1.58,18.45-1.58c0,0,6.17-2.32.62-7.02s-7.19-6-7.19-6l6.62-.57s3.62-3.52-2.04-6.06,8.49-3.9,8.49-3.9c0,0,6.68,2.94,4.19,6.28s-4.53,4.13-4.53,4.13c0,0-1.7.23.34,2.32s5.72,5.49,5.72,5.49c0,0,2.55-.06.57,1.47s-14.09,11.15-14.09,11.15l-10.24,4.3s-1.38-3.88-13.29-3.05-17.3-2.63-17.3-2.63c0,0-11.63-7.75-13.98-8.58s-18.55,0-24.22-4.84-6.1-7.89-6.1-7.89v-23.89Z"/>
  
  </g>
</svg>