<?xml version="1.0" encoding="UTF-8"?>
<svg id="Calque_2" data-name="Calque 2" xmlns="http://www.w3.org/2000/svg" viewBox="0 0 1024 1024">
  <defs>
    <style>
      .cls-1 {
        fill: none;
        stroke-width: 0px;
      }

      .cls-2 {
        fill: #fff;
        stroke: #fff;
        stroke-miterlimit: 10;
      }
    </style>
  </defs>
  <g id="Route_7" data-name="Route 7">
    <path class="cls-2" d="M454.7,439.93v-8.7s-33.15,2.9-61.96-8.51-53.81-19.75-57.25-27.18-2.72-14.49-6.34-26.63-30.44-28.99-30.44-28.99c0,0-25.91-6.16-25.91-8.33s8.7-6.7,8.7-6.7c0,0,6.7.91,5.8-1.09s-4.89-11.96-2.36-16.85-20.83-3.99-20.83-3.99c0,0-4.17,1.45.91,5.44s9.42,5.44,9.42,5.44c0,0,.18,3.99-6.52,7.25s-8.88,1.99-8.88,1.99c0,0-27.18-2.9-32.25-6.88s-7.43-6.34-7.43-6.34l-12.86,10.51s11.78.91,18.48,3.99,15.04,9.78,19.75,9.6,13.77-.36,13.77-.36l12.86,9.42,11.59,4.53,8.7-.54,26.99,23.55s1.81,18.66,5.62,25.91,12.32,12.14,12.32,12.14c0,0,62.68,29.35,79.71,31.34s38.41,0,38.41,0Z"/>
    <rect class="cls-1" width="1024" height="1024"/>
  </g>
</svg>