<?xml version="1.0" encoding="UTF-8"?>
<svg id="Calque_2" data-name="Calque 2" xmlns="http://www.w3.org/2000/svg" viewBox="0 0 1024 1024">
  <defs>
    <style>
      .cls-1 {
        fill: none;
        stroke-width: 0px;
      }

      .cls-2 {
        fill: #fff;
        stroke: #fff;
        stroke-miterlimit: 10;
      }
    </style>
  </defs>
  <g id="Route_11" data-name="Route 11">
    <path class="cls-2" d="M557.6,527.08l9.34,5.78s20.63-9.16,32.7-12.48,31.4-15.7,31.4-15.7c0,0,10.87-7.25,9.96-13.28s-4.42-19.69.05-20.56,23.19.03,26.81-1.78,7.25-5.13,7.25-5.13c0,0-8.15-4.23-1.81-4.23s9.66,5.13,18.11-1.81,13.58-9.66,8.75-15.09,3.32-2.86,3.32-2.86c0,0,14.19-14.95,9.66-16.76s-15.4-7.25-12.38-9.66,3.92-5.13,9.06-5.43-11.77-8.45-11.77-8.45c0,0-12.08,3.02-12.68-3.92s1.21-9.96,1.21-9.96c0,0-1.81-10.54-10.26-13.87s-14.79-5.75-20.23-4.54-17.51,18.42-17.51,18.42l-16.3,12.38-12.98,9.66s-17.51-.3-26.87-1.51-1.51,7.55-1.51,7.55h10.57c9.36,0,15.4,5.43,15.4,5.43,0,0-1.21,12.98-3.92,17.21s9.36,13.48,9.36,13.48l12.38,9.77,1.21,3.32,1.21,32.6s-13.28,13.49-28.08,15.35-32,9.41-32,9.41l-9.44,6.7Z"/>
    <rect class="cls-1" width="1024" height="1024"/>
  </g>
</svg>