<?xml version="1.0" encoding="UTF-8"?>
<svg id="Calque_2" data-name="Calque 2" xmlns="http://www.w3.org/2000/svg" viewBox="0 0 1024 1024">
  <defs>
    <style>
      .cls-1 {
        fill: none;
        stroke-width: 0px;
      }

      .cls-2 {
        fill: #fff;
        stroke: #fff;
        stroke-miterlimit: 10;
      }
    </style>
  </defs>
  <g id="Route_8" data-name="Route 8">
    <path class="cls-2" d="M219.36,309.86l-12.86,10.51s-13.23,8.7-14.49,11.41-5.98,1.45-5.98,1.45c0,0-7.07,20.11-10.33,23.19s-6.16,4.17-6.16,4.17c0,0-3.62,19.02-11.23,25.36s-11.41-2.9-6.7-8.33,6.52-15.76,5.44-17.39,3.62-4.89,3.62-4.89c0,0,9.78-4.17,11.05-10.51s3.99-17.39,3.99-17.39c0,0-1.81-3.99,4.89-4.17s14.31-7.25,14.31-7.25c0,0,3.99-1.45-5.98-6.16s-34.78-20.65-34.78-20.65c0,0-3.99-11.23,1.81-14.13s27.54-16.31,27.54-16.31c0,0,2.54-3.99,14.49,1.09s25.73,11.96,25.73,11.96c0,0,5.25.72,5.44,13.77s0,15.76,0,15.76l-9.78,8.51Z"/>
    <rect class="cls-1" width="1024" height="1024"/>
  </g>
</svg>