<?xml version="1.0" encoding="UTF-8"?>
<svg id="Calque_2" data-name="Calque 2" xmlns="http://www.w3.org/2000/svg" viewBox="0 0 1024 1024">
  <defs>
    <style>
      .cls-1 {
        fill: none;
        stroke-width: 0px;
      }

      .cls-2 {
        fill: #fff;
        stroke: #fff;
        stroke-miterlimit: 10;
      }
    </style>
  </defs>
  <g id="Route_4" data-name="Route 4">
    <path class="cls-2" d="M392.01,585.23l.54,10.69,28.44-1.27s4.35,5.25,7.97,5.25,18.12.37,25-2.71,12.32-10.87,20.83-10.33,64.13.54,64.13.54c0,0,12.68,0,19.75-10.87s10.87-12.86,10.87-12.86c0,0,5.8-16.31,1.45-20.83s-8.33-6.16-4.71-8.7-8.7-7.07-8.7-7.07c0,0-6.16,1.27-9.96-1.45s-5.98-3.8-5.98-3.8l.91,7.25s3.26,2.54,3.99,6.7,5.44,7.07,5.44,7.07c0,0,9.78,5.62,9.96,10.33s-1.09,5.62-10.15,11.41-1.99,3.21-12.86,6.22-14.31,0-14.31,0l-7.25,2.78s-14.31-8.1-13.59-8.64-9.78,1.99-9.78,1.99c0,0-17.21,3.62-17.75-7.61s-3.99-22.83-3.99-22.83l10.05-9.6-2.26-1.63s-20.11,7.43-21.38,16.85-1.45,15.22-1.45,15.22c0,0,1.45,5.25,6.34,11.96s3.99,7.79,3.99,7.79c0,0-10.69,11.96-20.65,13.04s-20.11-.72-20.11-.72c0,0,0-4.53-6.52-4.89s-28.26.72-28.26.72Z"/>
    <rect class="cls-1" width="1024" height="1024"/>
  </g>
</svg>