<?xml version="1.0" encoding="UTF-8"?>
<svg id="Calque_2" data-name="Calque 2" xmlns="http://www.w3.org/2000/svg" viewBox="0 0 1024 1024">
  <defs>
    <style>
      .cls-1 {
        fill: none;
        stroke-width: 0px;
      }

      .cls-2 {
        fill: #fff;
        stroke: #fff;
        stroke-miterlimit: 10;
      }
    </style>
  </defs>
  <g id="Route_9" data-name="Route 9">
    <path class="cls-2" d="M466.84,439.93h-12.14v-31.86s8.49-11.77,19.96-11.47,16.6-2.72,16.6-6.94,3.32-2.72-2.26-13.89,1.36-11.47,1.36-11.47l-16.89-10.57s-29,2.42-45.6-7.25-37.74-16.3-37.74-16.3c0,0-16.3-6.04-25.36,9.96s-5.74-6.64-5.74-6.64c0,0-1.83-4.65-14.5-4.44s-21.78-6.39-21.78-6.39l-6.88-4.57s4.23-3.92,1.81-8.15,5.07-7.06,5.07-7.06c0,0,5.79-9.55,10.32-11.96s25.06-6.94,27.17-13.58-2.42-8.15-2.42-8.15c0,0-9.66-3.63-17.51-11.93s4.22-6.79,4.22-6.79c0,0,8.16,6.04,11.18,10.57s16,4.83,16,4.83c0,0,16.3-3.62,17.81-9.96s9.06-6.65,6.34,1.35-18.42,13.14-18.42,13.14c0,0-5.74-1.21-6.34,7.85s-15.7,12.08-15.7,12.08c0,0-17.51,4.23-21.13,9.96s-6.34,7.55-5.13,12.38,0,6.94,11.47,8.15,24.98-3.24,26.38,1.85,9.25,0,9.25,0c0,0,9.66,1.25,16.91,0s16.3,6.6,16.3,6.6c0,0,37.43,6.94,41.36,1.21s15.09,5.43,15.09,5.43c0,0-7.85-1.51,19.62,13.28s32.6,20.53,32.6,20.53c0,0-.91,5.74-7.55,4.53s-9.06,2.42-9.06,2.42c0,0,4.23,8.15,0,16s-5.74,9.36-5.74,9.36c0,0-11.77,2.11-18.11,2.72s-10.57,3.02-10.57,3.02c0,0-1.74,0-.91,18.72s.63,13.44.63,13.44Z"/>
    <rect class="cls-1" width="1024" height="1024"/>
  </g>
</svg>