<?xml version="1.0" encoding="UTF-8"?>
<svg id="Calque_2" data-name="Calque 2" xmlns="http://www.w3.org/2000/svg" viewBox="0 0 1024 1024">
  <defs>
    <style>
      .cls-1 {
        fill: none;
        stroke-width: 0px;
      }

      .cls-2 {
        fill: #fff;
        stroke: #fff;
        stroke-miterlimit: 10;
      }
    </style>
  </defs>
  <g id="Route_3" data-name="Route 3">
    <path class="cls-2" d="M344.53,630.63l-12.87-7.75s41.57-11.33,34.93-24.31-9.96-11.47-9.96-11.47l-7.14-.05,1.41-13.46s19.62,2.95,29.58-4.6,9.37-6.03,9.01-18.9-1.27-11.59-1.27-11.59c0,0-4.71-3.62-4.35-12.32s.18-11.85,2.9-14.17,9.24,0,9.24,0v17.61s5.07,2.17,5.62,7.97.72,27.18.72,27.18l-17.75,16.67s2.17,4.71,5.25,4.71,1.81,9.96,1.81,9.96c0,0-1.09,8.88-13.23,14.67s-15.22,9.6-15.22,9.6l-18.68,10.25Z"/>
    <rect class="cls-1" width="1024" height="1024"/>
  </g>
</svg>