<?xml version="1.0" encoding="UTF-8"?>
<svg id="Calque_2" data-name="Calque 2" xmlns="http://www.w3.org/2000/svg" viewBox="0 0 1024.5 1024">
  <defs>
    <style>
      .cls-1 {
        fill: none;
        stroke-width: 0px;
      }

      .cls-2 {
        fill: #fff;
        stroke: #fff;
        stroke-miterlimit: 10;
      }
    </style>
  </defs>
  <g id="Route_13" data-name="Route 13">
    <path class="cls-2" d="M1012.62,734.42l-7.25,13.58-.91,24.15s-7.55,15.09-16.6,13.89-17.81-15.7-17.81-15.7c0,0-11.47-2.42-30.79-17.21s-21.13-14.79-21.13-14.79c0,0-2.11-10.26,10.26-19.32,12.38-9.06,25.06-18.11,25.96-30.19.91-12.08,2.11-20.53-2.42-23.25s-10.57-9.06-13.28-19.62c-2.72-10.57-8.75-13.76-12.08-15.33-3.32-1.57-1.51-18.18,3.32-19.39,4.83-1.21.3-9.66.3-9.66,0,0,6.94-9.46,10.26-8.05s16.6,5.03,16.6,5.03l11.17-5.03s-.91-14.29-9.66-10.37c-8.75,3.92-25.06,3.92-25.06,3.92,0,0-12.68,5.42-12.08,12.82.6,7.4,4.23,4.08,4.23,4.08,0,0-3.02,5.74-9.66,8.75-6.64,3.02-2.78,23.25-2.78,23.25,0,0-10.2,9.85-16.24,3.56-6.04-6.28-12.68-66.66-12.68-66.66l-12.38,2.42s-1.51-1.21,0,6.04c1.51,7.25,9.96,58.21,9.96,58.21,0,0,9.36,6.7,11.77,8.81,2.42,2.11,5.43,15.7,4.23,19.32-1.21,3.62-6.64,7.25-11.47,8.75-4.83,1.51-5.13,9.14-5.13,9.14,0,0,3.02,6.86-2.72,8.67-5.74,1.81-16.3,1.81-22.04,1.51s-4.83-.91-14.19,2.72c-9.36,3.62-14.28,2.72-14.84,0-.56-2.72-.25-6.94,8.5-10.57,8.75-3.62,13.58-7.25,13.58-7.25,0,0,5.74-17.51,3.62-19.92-2.11-2.42-13.89-7.55-13.89-7.55,0,0-7.55,1.81-5.74,10.87,1.81,9.06-41.06,37.13-28.98,41.36,12.08,4.23,14.19,1.81,14.19,1.81,0,0,4.53,3.92,12.38,5.13,7.85,1.21,15.4-3.02,17.51-5.13,2.11-2.11,11.77-5.43,18.11-2.42,6.34,3.02,4.53,6.34,9.06,10.26,4.53,3.92,17.21,13.89,17.21,13.89,0,0,7.55.91,9.06,2.42s9.66,12.68,9.66,12.68l22.34,15.4,40.15,28.98s9.66,10.57,18.11,8.15,20.83-14.49,20.83-14.49c0,0,4.23-11.77,2.72-15.4-1.51-3.62,6.34-14.19,6.34-14.19l1.72-4.53v-13.28l-11.38-.3ZM909.98,723.25s-8.45,1.81-19.02-7.55-8.45-13.89-8.45-13.89c0,0,16-2.42,13.89-7.55s-2.11-8.67-2.11-8.67c0,0,17.81-10.05,16.6-16.39l-2.42-17.21s10.57-9.96,15.4-8.15c4.83,1.81,3.62,10.26,8.15,18.11,4.53,7.85,9.66,9.66,9.66,9.66,0,0,5.43,6.94,3.32,18.11s-19.32,25.06-28.98,28.68c-9.66,3.62-6.04,4.83-6.04,4.83Z"/>
    <rect class="cls-1" width="1024" height="1024"/>
  </g>
</svg>