<?xml version="1.0" encoding="UTF-8"?>
<svg id="Calque_2" data-name="Calque 2" xmlns="http://www.w3.org/2000/svg" viewBox="0 0 1024 1024">
  <defs>
    <style>
      .cls-1 {
        fill: none;
        stroke-width: 0px;
      }

      .cls-2 {
        fill: #fff;
        stroke: #fff;
        stroke-miterlimit: 10;
      }
    </style>
  </defs>
  <g id="Route_2" data-name="Route 2">
    <path class="cls-2" d="M198.78,593.54c.89,11.69,1.52,24.5,1.49,32.67,4.74,36.54,43.06,42.15,64.26,50.38,23.12,5.26,58.55-28.51,66.44-45.26-25.47-21.59-27.41-21.87-29.62-28.1,0,0,1.11-5.4,5.12-6.78,4.71-.28,9.27,1.38,9.27,1.38l-.69,4.84s-8.44.55-1.25,6.37,17.86,13.84,17.86,13.84l12.87,7.75s1.94,12.73-60.21,53.84c-.74.49-8.43,2.11-21.32.24-17.4-2.52-45-14.22-58.27-25.16-16.33-14.53-15.36-27.54-16.33-59.66,0,0,10.34-6.41,10.38-6.37"/>
    <rect class="cls-1" width="1024" height="1024"/>
  </g>
</svg>